<svg width="302" height="279" viewBox="0 0 302 279" fill="none" xmlns="http://www.w3.org/2000/svg">
<rect width="302" height="279" fill="url(#paint0_linear_1553_14277)"/>
<path d="M150.592 246.508C202.834 246.508 245.184 204.262 245.184 152.149C245.184 100.036 202.834 57.7905 150.592 57.7905C98.3503 57.7905 56 100.036 56 152.149C56 204.262 98.3503 246.508 150.592 246.508Z" fill="url(#paint1_radial_1553_14277)"/>
<path d="M225.981 183.754C225.399 183.542 225.511 184.942 225.411 185.748C225.269 186.939 225.064 188.123 224.797 189.293C223.309 195.377 218.698 206.543 211.01 212.572C206.261 216.295 199.45 219.463 194.238 219.569C192.374 219.611 190.018 219.274 186.685 220.269C184.451 220.935 182.043 222.122 181.583 221.494C181.282 221.07 182.221 220.309 181.89 219.525C181.52 218.649 179.821 218.337 178.51 218.515C176.722 218.757 175.746 219.889 175.13 219.433C174.856 219.234 174.975 218.967 174.779 218.473C174.207 217.056 171.965 216.119 170.079 216.371C168.782 216.543 168.464 217.171 167.796 216.897C166.767 216.473 167.326 214.896 166.174 213.829C164.899 212.644 163.175 213.651 162.218 212.427C161.625 211.666 162.201 211.155 161.606 210.15C160.734 208.666 159.14 209.145 158.488 207.873C157.835 206.6 159.106 205.589 158.4 204.414C157.85 203.496 156.912 203.867 155.72 202.883C154.149 201.588 153.939 199.45 153.922 199.247C153.709 196.836 155.41 195.788 154.712 194.382C154.164 193.292 152.859 193.369 152.735 192.412C152.627 191.543 153.673 191.263 153.798 190.093C153.911 188.986 153.097 188.029 152.614 187.465C151.375 186.011 150.095 185.902 150.063 185.054C150.042 184.484 150.614 184.355 150.941 183.653C151.643 182.145 150 180.612 149.8 179.185C149.277 175.461 158.124 169.178 161.916 171.477C163.304 172.325 163.719 174.168 164.55 177.872C165.162 180.595 165.466 181.958 164.814 183.385C163.838 185.523 161.944 185.226 160.862 187.503C160.069 189.179 159.984 191.672 161.213 192.497C162.301 193.227 164.28 192.55 165.428 191.437C167.341 189.601 166.506 187.022 167.979 186.443C169.186 185.966 170.761 187.319 170.955 187.503C172.957 189.227 172.041 191.291 173.678 192.497C175.234 193.646 178.259 193.394 179.649 191.621C179.747 191.496 180.924 189.946 180.351 188.468C179.343 185.875 174.137 186.56 173.761 184.613C173.589 183.712 174.569 182.804 175.079 182.336C176.66 180.875 178.029 181.466 179.908 180.408C182.077 179.189 183.673 176.477 182.982 175.241C182.502 174.393 180.844 174.117 179.734 174.628C178.722 175.09 178.556 176.015 177.889 176.992C176.369 179.221 172.989 180.65 171.741 179.882C169.798 178.689 171.278 171.119 174.464 165.08C177.695 158.956 181.173 157.263 180.523 153.78C180.07 151.341 177.772 149 175.253 148.523C172.734 148.046 170.753 149.583 161.028 157.895C155.25 162.83 152.499 165.226 152.159 164.893C151.923 164.668 152.82 163.114 153.936 161.924C155.988 159.727 158.152 159.422 158.264 157.917C158.32 157.136 157.752 156.998 157.914 156.32C158.226 154.978 160.515 155.156 161.602 153.517C162.239 152.565 162.103 151.523 162.082 150.889C161.946 147.053 165.007 142.662 166.034 140.815C169.286 134.956 169.69 122.817 166.735 112.785C165.292 107.915 163.017 103.331 160.01 99.2349C165.728 101.508 168.64 105.314 172.883 104.578C177.61 103.758 180.174 97.9605 180.765 96.6246C181.239 95.5516 182.831 92.8078 181.33 83.2529C179.417 71.0518 178.799 66.7133 181.233 64.3914C181.809 63.8443 182.44 63.5157 183.93 62.1098C187.166 59.05 187.586 57.3791 187.693 56.8935C187.833 56.2319 188.241 54.3277 187.144 53.4668C186.249 52.7628 184.623 52.9621 183.886 53.7827C183.148 54.6034 183.849 55.5661 183.112 57.3048C183.063 57.413 182.187 59.4253 181.175 59.3574C180.076 59.2875 179.475 56.8341 179.426 56.6348C178.897 54.4019 179.851 53.5347 180.019 50.5512C180.104 49.1559 180.308 45.7822 178.771 45.0528C177.785 44.5863 176.25 45.2882 175.47 46.289C174.156 47.9854 174.943 50.6063 175.534 52.5741C176.448 55.6297 177.872 57.326 177.368 57.7841C177.002 58.1212 175.925 57.5254 175.404 57.1734C174.248 56.3888 173.686 55.2989 172.938 53.4668C171.365 49.5991 171.45 48.5134 170.553 48.2038C169.503 47.8497 167.911 48.8209 167.388 50.1313C166.914 51.3251 167.447 52.4787 167.637 52.8879C168.293 54.3065 169.229 54.3913 170.717 55.8905C171.992 57.1755 173.48 59.296 172.983 59.9575C172.573 60.5067 170.808 60.0381 169.639 59.3214C169.305 59.1094 169.099 58.9397 167.49 57.3197C165.832 55.6488 165.577 55.3498 165.045 55.3158C164.146 55.2607 163.107 56.0135 162.962 56.8892C162.924 57.1013 162.864 57.8222 164.174 59.0585C166.693 61.444 168.836 60.6488 169.935 62.4088C170.851 63.8762 170.445 66.1726 169.509 66.6306C169.337 66.7176 169.029 66.7982 167.345 66.092C164.95 65.0827 164.697 64.5462 163.753 64.5356C162.573 64.5208 160.958 65.3414 160.715 66.7791C160.484 68.1701 161.619 69.6205 162.711 69.7604C163.653 69.8834 164.08 68.9589 165.13 68.5157C167.36 67.5764 170.53 69.6099 171.903 71.0179C175.848 75.0616 175.661 84.8581 169.813 88.2191C166.708 90.0066 162.078 89.9324 159.164 87.3985C156.375 84.9769 155.337 80.4688 156.421 77.339C156.927 75.8843 157.871 74.7944 157.433 73.2677C157.191 72.4343 156.555 71.7197 155.284 70.299C153.834 68.6726 153.679 68.8762 153.394 68.2379C152.693 66.6709 153.734 65.6934 153.182 63.7277C152.874 62.6675 152.3 62.0313 151.953 61.5797C149.472 58.399 151.13 52.3323 148.571 50.3667C146.288 48.6152 137.007 43.1423 137.007 43.1423C136.204 40.1736 133.415 37.9259 130.007 37.663C123.966 37.2749 116.594 34.1833 113.852 32.9428C113.513 32.7475 113.157 32.5822 112.789 32.4488H112.774C111.672 32.0436 110.489 31.91 109.324 32.0593C108.159 32.2086 107.048 32.6364 106.085 33.3062C105.121 33.976 104.335 34.8681 103.791 35.9065C103.248 36.9449 102.964 38.0989 102.964 39.2703C102.964 39.6137 102.989 39.9568 103.038 40.2966C103.038 43.8293 105.041 51.7111 106.155 55.8438C106.592 57.5051 106.665 59.2411 106.367 60.9329C105.447 66.3783 106.401 69.9174 107.585 72.2329C109.269 75.526 111.796 77.11 112.415 81.4315C112.627 82.8585 112.598 84.4659 113.82 85.5494C114.379 86.0435 116.118 87.2458 117.988 86.951C118.518 86.8662 119.022 86.6711 119.438 86.951C119.855 87.2309 119.717 87.7568 119.965 88.7025C120.165 89.4638 120.365 90.2123 120.93 90.6725C121.755 91.3446 123.381 91.4189 124.485 90.8845C124.772 90.7488 125.141 90.5177 125.363 90.6725C125.584 90.8272 125.52 91.1496 125.496 91.6394C125.437 92.795 125.405 93.3782 125.539 93.6496C125.998 94.5995 127.811 94.1373 128.13 94.8752C128.428 95.5686 127.176 96.7243 126.902 96.9766C123.058 100.581 123.785 104.398 121.107 105.929C116.898 108.325 107.077 103.505 106.118 97.1695C105.827 95.2208 106.118 91.4803 108.225 90.278C109.216 89.714 110.21 89.9303 110.685 89.1118C111.235 88.1597 110.761 86.3785 109.515 85.719C108.223 85.0384 106.59 85.8251 105.887 86.7793C105.321 87.5363 105.596 88.0516 104.949 90.5749C104.497 92.3413 104.244 92.5342 104.071 92.6212C103.136 93.0834 101.057 92.0189 100.443 90.3989C99.7052 88.465 101.637 87.2415 101.261 83.8021C101.064 82.0125 100.464 81.6308 100.266 81.5248C99.4756 81.1007 98.247 81.476 97.7474 82.2245C97.4562 82.6635 97.5349 83.0473 97.8643 85.3777C98.1832 87.6338 98.1981 87.9116 98.1598 88.2954C98.0195 89.6546 97.3244 91.3404 96.6357 91.334C95.8109 91.334 95.0159 88.8637 94.7629 87.0698C94.4675 84.979 94.9755 84.186 94.2358 82.8098C94.0232 82.4069 93.428 81.2852 92.1887 80.9395C90.8261 80.5621 89.0873 81.2343 88.7323 82.286C88.4304 83.1893 89.353 83.7703 91.4957 87.3751C92.5033 89.0715 93.0305 90.1847 92.9561 91.58C92.9242 92.1992 92.7435 93.4206 92.2546 93.5075C91.5829 93.6263 91.0961 91.4719 89.2127 88.8934C87.9968 87.2352 86.3812 85.0214 84.2364 85.0384C82.961 85.0384 81.473 85.8442 81.2604 86.9065C80.9097 88.5668 83.7262 90.4519 84.889 91.2301C87.3803 92.8905 88.6409 92.6699 90.1012 94.4405C90.2309 94.6017 91.8231 96.561 91.2109 97.4791C90.6497 98.3273 88.5197 97.8015 88.4007 97.7696C86.5662 97.3031 86.275 96.1623 85.1228 96.2535C84.0238 96.3404 82.8781 97.5109 82.8993 98.6475C82.9206 100.043 84.6828 100.872 85.2993 101.16C85.752 101.372 87.3399 102.053 91.738 101.336C93.7638 101.008 94.4079 100.7 95.1944 100.575C98.5169 100.045 101.608 103.168 110.179 112.081C114.464 116.553 117.425 119.663 121.152 119.733C121.804 119.733 123.235 119.765 124.429 118.858C126.113 117.585 127.214 115.592 128.381 113.344C128.8 112.631 129.271 111.949 129.79 111.305C130.281 113.168 130.258 115.97 128.234 119.742C124.138 127.388 119.34 135.37 120.741 144.151C121.003 145.754 121.165 147.372 121.226 148.996C119.574 143.748 116.301 138.72 113.189 138.368C112.876 138.332 112.268 138.474 109.851 139.594C102.245 143.107 98.974 150.056 97.8006 149.39C97.3159 149.117 97.5051 147.747 97.8006 146.937C98.4532 145.126 99.9539 145.154 100.666 143.544C101.378 141.935 100.944 139.613 99.6712 138.989C98.7975 138.565 97.5816 138.989 96.8015 139.575C94.7608 141.127 95.9873 143.64 93.9913 146.057C93.0751 147.168 91.2683 148.51 89.776 148.099C88.3326 147.702 87.6269 145.785 86.2643 141.966C85.1398 138.813 85.0038 137.301 83.8644 136.945C82.8908 136.644 81.7536 137.369 81.1711 138.052C79.7171 139.748 80.1742 143.005 81.7578 144.884C83.3415 146.763 85.1016 146.156 86.5598 148.213C87.4101 149.428 88.035 151.394 87.3187 152.128C86.2558 153.228 82.0044 151.886 79.1241 149.384C77.4384 147.916 76.7539 146.515 75.4955 146.627C74.4029 146.735 73.5101 147.927 73.2125 148.96C72.4153 151.699 75.0491 155.745 78.0697 156.318C80.8841 156.85 82.6995 154.121 85.21 155.258C85.3226 155.311 86.851 156.025 86.9105 157.126C86.9871 158.57 84.4511 158.854 83.2777 161.155C82.3233 163.04 82.4529 165.934 83.9792 166.935C85.2546 167.772 87.2103 167.113 88.3688 166.354C91.0217 164.613 90.0524 161.984 92.0569 160.453C94.9479 158.25 98.7125 162.361 103.357 160.747C107.821 159.191 107.589 154.248 110.372 154.089C115.061 153.82 121.492 167.448 117.812 172.249C116.8 173.566 115.399 173.733 114.124 175.987C113.816 176.526 112.381 179.049 112.895 182.06C113.337 184.654 114.964 185.504 114.356 187.149C113.93 188.316 113.08 188.303 112.192 189.543C110.602 191.768 110.685 195.481 112.192 197.953C113.488 200.074 115.066 200.021 115.469 201.867C115.846 203.585 114.602 204.187 114.241 206.363C113.658 209.849 115.867 214.119 118.983 215.767C121.126 216.895 122.068 215.928 123.726 217.224C126.1 219.083 124.776 221.552 126.887 223.416C129.416 225.644 133.051 223.653 134.554 225.928C135.383 227.184 134.512 228.161 135.617 229.548C136.642 230.841 137.664 230.326 139.073 231.711C140.532 233.144 139.936 234.196 141.237 235.104C142.768 236.164 144.152 235.104 145.221 236.164C146.152 237.086 145.291 238.098 146.039 239.726C147.283 242.432 151.262 243.119 151.896 243.229C154.07 243.605 154.245 242.892 155.76 243.405C158.451 244.317 158.405 246.747 160.618 247.32C162.35 247.765 162.641 246.346 165.719 245.859C169.31 245.288 170.383 246.991 173.272 245.975C175.119 245.326 174.936 244.54 176.609 244.224C179.09 243.761 180.01 245.394 182.053 244.809C184.041 244.239 183.807 242.506 185.682 242.065C187.933 241.535 189.283 243.789 191.07 242.998C192.374 242.423 192.157 240.996 193.47 240.666C194.714 240.348 195.405 241.493 196.872 241.247C198.03 241.054 198.755 240.135 199.095 239.73C203.213 234.794 213.014 229.976 220.169 216.955C228.2 202.302 228.766 184.785 225.981 183.754ZM116.526 61.444C112.047 59.6607 111.458 50.8904 113.365 49.8811C114.836 49.1008 118.841 52.5465 119.483 53.2738C120.512 54.4337 123.014 58.3057 121.793 60.4007C120.971 61.7981 118.352 62.1692 116.526 61.444Z" fill="#231F20"/>
<path d="M113.014 47.5552H113.226C113.373 47.5552 113.585 47.5552 113.864 47.5764C114.613 47.622 115.358 47.7255 116.092 47.886C116.319 47.939 116.559 47.9856 116.799 48.062C117.04 48.1383 117.297 48.1977 117.548 48.2931L117.935 48.4288C118.064 48.4755 118.192 48.537 118.324 48.5921L118.721 48.7617C118.851 48.8253 118.98 48.8974 119.112 48.9738L119.51 49.1858L119.892 49.4318C120.02 49.5166 120.152 49.5972 120.279 49.6862L120.647 49.9746C120.768 50.0722 120.894 50.1697 121.015 50.2715L121.357 50.6002L121.697 50.9352L122.007 51.2999L122.309 51.6668L122.348 51.7134L122.367 51.7367L122.392 51.7749L122.456 51.8703L122.586 52.059L122.843 52.4365C122.926 52.5658 123.004 52.7121 123.085 52.8479L123.321 53.2719L123.515 53.696C123.643 53.9725 123.757 54.2556 123.855 54.5442C123.965 54.8199 124.033 55.1061 124.114 55.3797C124.195 55.6532 124.235 55.931 124.295 56.1939C124.354 56.4569 124.38 56.7219 124.405 56.9743C124.431 57.2266 124.452 57.4726 124.454 57.708C124.472 58.1322 124.464 58.5571 124.429 58.9802C124.405 59.3072 124.365 59.6328 124.307 59.9556C124.263 60.2249 124.212 60.4328 124.178 60.5727L124.12 60.7847C124.118 60.7987 124.112 60.8119 124.105 60.8238C124.097 60.8356 124.087 60.8458 124.075 60.8538C124.063 60.8618 124.05 60.8674 124.036 60.8703C124.022 60.8731 124.008 60.8733 123.994 60.8706C123.98 60.868 123.967 60.8626 123.955 60.8548C123.943 60.8471 123.933 60.837 123.925 60.8253C123.917 60.8136 123.911 60.8004 123.908 60.7866C123.905 60.7727 123.905 60.7584 123.908 60.7445C123.908 60.7445 123.948 60.4434 123.967 59.9154C123.967 59.6524 123.982 59.3301 123.967 58.9654C123.967 58.783 123.952 58.5879 123.935 58.3844C123.918 58.1808 123.897 57.9603 123.874 57.7482C123.85 57.5362 123.804 57.2966 123.767 57.0591C123.731 56.8216 123.67 56.5799 123.614 56.3318C123.482 55.8151 123.318 55.3073 123.121 54.8114C123.021 54.5495 122.906 54.2933 122.777 54.0438L122.583 53.6621L122.371 53.2974C122.297 53.1744 122.233 53.0535 122.158 52.9306L121.895 52.5573L121.763 52.3707L121.697 52.2774V52.2647L121.68 52.2435L121.644 52.2011L121.359 51.864L121.078 51.5247L120.757 51.1875L120.451 50.8737C120.343 50.7762 120.239 50.6829 120.124 50.5874L119.799 50.3012C119.686 50.2121 119.569 50.1294 119.457 50.0425L119.116 49.7859L118.764 49.5569L118.419 49.3342L118.062 49.137C117.943 49.0734 117.828 49.0035 117.711 48.9462L117.356 48.7808C117.125 48.6663 116.891 48.5688 116.663 48.4882C116.436 48.4076 116.213 48.327 115.996 48.257C115.297 48.0373 114.578 47.8888 113.849 47.8139C113.585 47.7863 113.377 47.7248 113.237 47.7248C113.163 47.7259 113.09 47.7084 113.024 47.6739C112.965 47.6739 112.918 47.6739 112.92 47.6145C112.922 47.5552 112.954 47.5552 113.014 47.5552Z" fill="white"/>
<path d="M123.902 214.938C124.287 214.938 124.6 214.627 124.6 214.242C124.6 213.858 124.287 213.547 123.902 213.547C123.517 213.547 123.205 213.858 123.205 214.242C123.205 214.627 123.517 214.938 123.902 214.938Z" fill="#85C441"/>
<path d="M129.126 217.101C129.398 217.101 129.619 216.88 129.619 216.609C129.619 216.337 129.398 216.117 129.126 216.117C128.854 216.117 128.633 216.337 128.633 216.609C128.633 216.88 128.854 217.101 129.126 217.101Z" fill="#85C441"/>
<path d="M144.551 205.496C144.936 205.496 145.248 205.184 145.248 204.8C145.248 204.416 144.936 204.104 144.551 204.104C144.166 204.104 143.854 204.416 143.854 204.8C143.854 205.184 144.166 205.496 144.551 205.496Z" fill="#85C441"/>
<path d="M133.475 200.919C133.86 200.919 134.172 200.608 134.172 200.224C134.172 199.84 133.86 199.528 133.475 199.528C133.09 199.528 132.777 199.84 132.777 200.224C132.777 200.608 133.09 200.919 133.475 200.919Z" fill="#85C441"/>
<path d="M118.727 208.577C119.112 208.577 119.424 208.265 119.424 207.881C119.424 207.497 119.112 207.186 118.727 207.186C118.341 207.186 118.029 207.497 118.029 207.881C118.029 208.265 118.341 208.577 118.727 208.577Z" fill="#85C441"/>
<path d="M123.98 210.676C124.366 210.676 124.678 210.364 124.678 209.98C124.678 209.596 124.366 209.285 123.98 209.285C123.595 209.285 123.283 209.596 123.283 209.98C123.283 210.364 123.595 210.676 123.98 210.676Z" fill="#85C441"/>
<path d="M129.204 212.838C129.476 212.838 129.697 212.618 129.697 212.346C129.697 212.075 129.476 211.854 129.204 211.854C128.932 211.854 128.711 212.075 128.711 212.346C128.711 212.618 128.932 212.838 129.204 212.838Z" fill="#85C441"/>
<path d="M118.805 204.314C119.19 204.314 119.502 204.003 119.502 203.619C119.502 203.235 119.19 202.923 118.805 202.923C118.42 202.923 118.107 203.235 118.107 203.619C118.107 204.003 118.42 204.314 118.805 204.314Z" fill="#85C441"/>
<path d="M131.982 213.473C132.367 213.473 132.68 213.161 132.68 212.777C132.68 212.393 132.367 212.082 131.982 212.082C131.597 212.082 131.285 212.393 131.285 212.777C131.285 213.161 131.597 213.473 131.982 213.473Z" fill="#85C441"/>
<path d="M137.204 215.635C137.476 215.635 137.697 215.415 137.697 215.143C137.697 214.872 137.476 214.651 137.204 214.651C136.932 214.651 136.711 214.872 136.711 215.143C136.711 215.415 136.932 215.635 137.204 215.635Z" fill="#85C441"/>
<path d="M126.805 207.111C127.19 207.111 127.502 206.8 127.502 206.416C127.502 206.032 127.19 205.72 126.805 205.72C126.42 205.72 126.107 206.032 126.107 206.416C126.107 206.8 126.42 207.111 126.805 207.111Z" fill="#85C441"/>
<path d="M130.475 205.718C130.86 205.718 131.172 205.407 131.172 205.023C131.172 204.639 130.86 204.327 130.475 204.327C130.09 204.327 129.777 204.639 129.777 205.023C129.777 205.407 130.09 205.718 130.475 205.718Z" fill="#85C441"/>
<path d="M135.698 207.881C135.971 207.881 136.191 207.661 136.191 207.389C136.191 207.117 135.971 206.897 135.698 206.897C135.426 206.897 135.205 207.117 135.205 207.389C135.205 207.661 135.426 207.881 135.698 207.881Z" fill="#85C441"/>
<path d="M136.191 205.608C137.023 205.608 137.698 204.935 137.698 204.104C137.698 203.274 137.023 202.601 136.191 202.601C135.358 202.601 134.684 203.274 134.684 204.104C134.684 204.935 135.358 205.608 136.191 205.608Z" fill="#85C441"/>
<path d="M131.051 210.296C131.615 209.685 131.575 208.734 130.963 208.172C130.35 207.609 129.397 207.649 128.833 208.26C128.269 208.871 128.309 209.822 128.922 210.384C129.534 210.946 130.487 210.907 131.051 210.296Z" fill="#85C441"/>
<path d="M123.914 204.63C124.478 204.019 124.438 203.068 123.826 202.506C123.213 201.944 122.26 201.983 121.696 202.594C121.133 203.205 121.172 204.156 121.785 204.719C122.397 205.281 123.351 205.241 123.914 204.63Z" fill="#85C441"/>
<path d="M125.299 199.357C125.684 199.357 125.996 199.045 125.996 198.661C125.996 198.277 125.684 197.966 125.299 197.966C124.914 197.966 124.602 198.277 124.602 198.661C124.602 199.045 124.914 199.357 125.299 199.357Z" fill="#85C441"/>
<path d="M142.066 232.294C142.451 232.294 142.764 231.982 142.764 231.598C142.764 231.214 142.451 230.903 142.066 230.903C141.681 230.903 141.369 231.214 141.369 231.598C141.369 231.982 141.681 232.294 142.066 232.294Z" fill="#85C441"/>
<path d="M147.288 234.457C147.56 234.457 147.781 234.236 147.781 233.965C147.781 233.693 147.56 233.473 147.288 233.473C147.016 233.473 146.795 233.693 146.795 233.965C146.795 234.236 147.016 234.457 147.288 234.457Z" fill="#85C441"/>
<path d="M162.715 222.851C163.1 222.851 163.412 222.54 163.412 222.156C163.412 221.772 163.1 221.46 162.715 221.46C162.33 221.46 162.018 221.772 162.018 222.156C162.018 222.54 162.33 222.851 162.715 222.851Z" fill="#85C441"/>
<path d="M151.637 218.273C152.022 218.273 152.334 217.962 152.334 217.578C152.334 217.194 152.022 216.882 151.637 216.882C151.252 216.882 150.939 217.194 150.939 217.578C150.939 217.962 151.252 218.273 151.637 218.273Z" fill="#85C441"/>
<path d="M136.891 225.933C137.276 225.933 137.588 225.621 137.588 225.237C137.588 224.853 137.276 224.542 136.891 224.542C136.506 224.542 136.193 224.853 136.193 225.237C136.193 225.621 136.506 225.933 136.891 225.933Z" fill="#85C441"/>
<path d="M142.144 228.032C142.53 228.032 142.842 227.72 142.842 227.336C142.842 226.952 142.53 226.641 142.144 226.641C141.759 226.641 141.447 226.952 141.447 227.336C141.447 227.72 141.759 228.032 142.144 228.032Z" fill="#85C441"/>
<path d="M147.368 230.194C147.641 230.194 147.861 229.974 147.861 229.702C147.861 229.431 147.641 229.21 147.368 229.21C147.096 229.21 146.875 229.431 146.875 229.702C146.875 229.974 147.096 230.194 147.368 230.194Z" fill="#85C441"/>
<path d="M136.969 221.67C137.354 221.67 137.666 221.359 137.666 220.975C137.666 220.591 137.354 220.279 136.969 220.279C136.584 220.279 136.271 220.591 136.271 220.975C136.271 221.359 136.584 221.67 136.969 221.67Z" fill="#85C441"/>
<path d="M150.144 230.829C150.53 230.829 150.842 230.517 150.842 230.133C150.842 229.749 150.53 229.438 150.144 229.438C149.759 229.438 149.447 229.749 149.447 230.133C149.447 230.517 149.759 230.829 150.144 230.829Z" fill="#85C441"/>
<path d="M155.368 232.989C155.641 232.989 155.861 232.769 155.861 232.497C155.861 232.226 155.641 232.005 155.368 232.005C155.096 232.005 154.875 232.226 154.875 232.497C154.875 232.769 155.096 232.989 155.368 232.989Z" fill="#85C441"/>
<path d="M144.967 224.465C145.352 224.465 145.664 224.154 145.664 223.77C145.664 223.386 145.352 223.074 144.967 223.074C144.582 223.074 144.27 223.386 144.27 223.77C144.27 224.154 144.582 224.465 144.967 224.465Z" fill="#85C441"/>
<path d="M148.637 223.074C149.022 223.074 149.334 222.763 149.334 222.379C149.334 221.995 149.022 221.683 148.637 221.683C148.252 221.683 147.939 221.995 147.939 222.379C147.939 222.763 148.252 223.074 148.637 223.074Z" fill="#85C441"/>
<path d="M153.862 225.237C154.135 225.237 154.355 225.017 154.355 224.745C154.355 224.473 154.135 224.253 153.862 224.253C153.59 224.253 153.369 224.473 153.369 224.745C153.369 225.017 153.59 225.237 153.862 225.237Z" fill="#85C441"/>
<path d="M154.355 222.962C155.187 222.962 155.862 222.289 155.862 221.458C155.862 220.628 155.187 219.955 154.355 219.955C153.522 219.955 152.848 220.628 152.848 221.458C152.848 222.289 153.522 222.962 154.355 222.962Z" fill="#85C441"/>
<path d="M149.215 227.651C149.779 227.04 149.739 226.089 149.127 225.527C148.514 224.964 147.561 225.004 146.997 225.615C146.433 226.226 146.473 227.177 147.086 227.739C147.698 228.301 148.652 228.262 149.215 227.651Z" fill="#85C441"/>
<path d="M142.078 221.986C142.642 221.375 142.602 220.424 141.99 219.862C141.377 219.3 140.424 219.339 139.86 219.95C139.297 220.561 139.336 221.512 139.949 222.075C140.561 222.637 141.515 222.597 142.078 221.986Z" fill="#85C441"/>
<path d="M143.461 216.713C143.846 216.713 144.158 216.401 144.158 216.017C144.158 215.633 143.846 215.322 143.461 215.322C143.076 215.322 142.764 215.633 142.764 216.017C142.764 216.401 143.076 216.713 143.461 216.713Z" fill="#85C441"/>
<path d="M125.039 192.701C125.424 192.701 125.736 192.389 125.736 192.005C125.736 191.621 125.424 191.31 125.039 191.31C124.654 191.31 124.342 191.621 124.342 192.005C124.342 192.389 124.654 192.701 125.039 192.701Z" fill="#85C441"/>
<path d="M130.263 194.863C130.535 194.863 130.756 194.643 130.756 194.371C130.756 194.1 130.535 193.879 130.263 193.879C129.99 193.879 129.77 194.1 129.77 194.371C129.77 194.643 129.99 194.863 130.263 194.863Z" fill="#85C441"/>
<path d="M145.687 183.258C146.073 183.258 146.385 182.947 146.385 182.563C146.385 182.179 146.073 181.867 145.687 181.867C145.302 181.867 144.99 182.179 144.99 182.563C144.99 182.947 145.302 183.258 145.687 183.258Z" fill="#85C441"/>
<path d="M134.611 178.68C134.996 178.68 135.309 178.369 135.309 177.985C135.309 177.6 134.996 177.289 134.611 177.289C134.226 177.289 133.914 177.6 133.914 177.985C133.914 178.369 134.226 178.68 134.611 178.68Z" fill="#85C441"/>
<path d="M119.863 186.339C120.248 186.339 120.56 186.028 120.56 185.644C120.56 185.26 120.248 184.948 119.863 184.948C119.478 184.948 119.166 185.26 119.166 185.644C119.166 186.028 119.478 186.339 119.863 186.339Z" fill="#85C441"/>
<path d="M125.117 188.438C125.502 188.438 125.814 188.127 125.814 187.743C125.814 187.359 125.502 187.047 125.117 187.047C124.732 187.047 124.42 187.359 124.42 187.743C124.42 188.127 124.732 188.438 125.117 188.438Z" fill="#85C441"/>
<path d="M130.341 190.601C130.613 190.601 130.834 190.381 130.834 190.109C130.834 189.837 130.613 189.617 130.341 189.617C130.068 189.617 129.848 189.837 129.848 190.109C129.848 190.381 130.068 190.601 130.341 190.601Z" fill="#85C441"/>
<path d="M119.941 182.077C120.326 182.077 120.639 181.766 120.639 181.382C120.639 180.997 120.326 180.686 119.941 180.686C119.556 180.686 119.244 180.997 119.244 181.382C119.244 181.766 119.556 182.077 119.941 182.077Z" fill="#85C441"/>
<path d="M133.119 191.235C133.504 191.235 133.816 190.924 133.816 190.54C133.816 190.156 133.504 189.844 133.119 189.844C132.734 189.844 132.422 190.156 132.422 190.54C132.422 190.924 132.734 191.235 133.119 191.235Z" fill="#85C441"/>
<path d="M138.343 193.396C138.615 193.396 138.836 193.176 138.836 192.904C138.836 192.632 138.615 192.412 138.343 192.412C138.07 192.412 137.85 192.632 137.85 192.904C137.85 193.176 138.07 193.396 138.343 193.396Z" fill="#85C441"/>
<path d="M127.943 184.872C128.328 184.872 128.641 184.561 128.641 184.176C128.641 183.792 128.328 183.481 127.943 183.481C127.558 183.481 127.246 183.792 127.246 184.176C127.246 184.561 127.558 184.872 127.943 184.872Z" fill="#85C441"/>
<path d="M131.611 183.481C131.996 183.481 132.309 183.169 132.309 182.785C132.309 182.401 131.996 182.09 131.611 182.09C131.226 182.09 130.914 182.401 130.914 182.785C130.914 183.169 131.226 183.481 131.611 183.481Z" fill="#85C441"/>
<path d="M136.835 185.644C137.107 185.644 137.328 185.423 137.328 185.152C137.328 184.88 137.107 184.66 136.835 184.66C136.563 184.66 136.342 184.88 136.342 185.152C136.342 185.423 136.563 185.644 136.835 185.644Z" fill="#85C441"/>
<path d="M137.327 183.368C138.16 183.368 138.835 182.695 138.835 181.865C138.835 181.034 138.16 180.361 137.327 180.361C136.495 180.361 135.82 181.034 135.82 181.865C135.82 182.695 136.495 183.368 137.327 183.368Z" fill="#85C441"/>
<path d="M132.19 188.059C132.753 187.448 132.714 186.497 132.101 185.935C131.489 185.373 130.535 185.412 129.972 186.023C129.408 186.634 129.448 187.585 130.06 188.147C130.673 188.71 131.626 188.67 132.19 188.059Z" fill="#85C441"/>
<path d="M125.053 182.394C125.617 181.783 125.577 180.832 124.965 180.269C124.352 179.707 123.399 179.747 122.835 180.358C122.271 180.969 122.311 181.92 122.923 182.482C123.536 183.044 124.489 183.005 125.053 182.394Z" fill="#85C441"/>
<path d="M126.436 177.12C126.821 177.12 127.133 176.808 127.133 176.424C127.133 176.04 126.821 175.729 126.436 175.729C126.05 175.729 125.738 176.04 125.738 176.424C125.738 176.808 126.05 177.12 126.436 177.12Z" fill="#85C441"/>
<path d="M123.862 170.535C124.476 170.535 124.974 170.039 124.974 169.426C124.974 168.814 124.476 168.317 123.862 168.317C123.248 168.317 122.75 168.814 122.75 169.426C122.75 170.039 123.248 170.535 123.862 170.535Z" fill="#85C441"/>
<path d="M132.185 173.983C132.619 173.983 132.971 173.632 132.971 173.199C132.971 172.765 132.619 172.414 132.185 172.414C131.751 172.414 131.398 172.765 131.398 173.199C131.398 173.632 131.751 173.983 132.185 173.983Z" fill="#85C441"/>
<path d="M156.77 155.489C157.384 155.489 157.882 154.992 157.882 154.38C157.882 153.767 157.384 153.271 156.77 153.271C156.156 153.271 155.658 153.767 155.658 154.38C155.658 154.992 156.156 155.489 156.77 155.489Z" fill="#85C441"/>
<path d="M139.116 148.194C139.73 148.194 140.227 147.698 140.227 147.085C140.227 146.473 139.73 145.976 139.116 145.976C138.502 145.976 138.004 146.473 138.004 147.085C138.004 147.698 138.502 148.194 139.116 148.194Z" fill="#85C441"/>
<path d="M114.502 146.618C115.116 146.618 115.614 146.122 115.614 145.509C115.614 144.897 115.116 144.4 114.502 144.4C113.888 144.4 113.391 144.897 113.391 145.509C113.391 146.122 113.888 146.618 114.502 146.618Z" fill="#85C441"/>
<path d="M123.987 163.743C124.601 163.743 125.098 163.247 125.098 162.634C125.098 162.022 124.601 161.525 123.987 161.525C123.373 161.525 122.875 162.022 122.875 162.634C122.875 163.247 123.373 163.743 123.987 163.743Z" fill="#85C441"/>
<path d="M132.312 167.191C132.746 167.191 133.098 166.84 133.098 166.407C133.098 165.973 132.746 165.622 132.312 165.622C131.878 165.622 131.525 165.973 131.525 166.407C131.525 166.84 131.878 167.191 132.312 167.191Z" fill="#85C441"/>
<path d="M115.739 153.606C116.353 153.606 116.85 153.109 116.85 152.497C116.85 151.884 116.353 151.388 115.739 151.388C115.125 151.388 114.627 151.884 114.627 152.497C114.627 153.109 115.125 153.606 115.739 153.606Z" fill="#85C441"/>
<path d="M136.737 168.2C137.351 168.2 137.849 167.704 137.849 167.091C137.849 166.479 137.351 165.982 136.737 165.982C136.123 165.982 135.625 166.479 135.625 167.091C135.625 167.704 136.123 168.2 136.737 168.2Z" fill="#85C441"/>
<path d="M145.062 171.646C145.496 171.646 145.848 171.295 145.848 170.862C145.848 170.428 145.496 170.077 145.062 170.077C144.628 170.077 144.275 170.428 144.275 170.862C144.275 171.295 144.628 171.646 145.062 171.646Z" fill="#85C441"/>
<path d="M128.489 158.063C129.103 158.063 129.6 157.566 129.6 156.954C129.6 156.341 129.103 155.845 128.489 155.845C127.875 155.845 127.377 156.341 127.377 156.954C127.377 157.566 127.875 158.063 128.489 158.063Z" fill="#85C441"/>
<path d="M134.334 155.843C134.948 155.843 135.446 155.346 135.446 154.734C135.446 154.121 134.948 153.625 134.334 153.625C133.72 153.625 133.223 154.121 133.223 154.734C133.223 155.346 133.72 155.843 134.334 155.843Z" fill="#85C441"/>
<path d="M142.66 159.288C143.094 159.288 143.446 158.937 143.446 158.504C143.446 158.071 143.094 157.719 142.66 157.719C142.225 157.719 141.873 158.071 141.873 158.504C141.873 158.937 142.225 159.288 142.66 159.288Z" fill="#85C441"/>
<path d="M143.445 155.667C144.772 155.667 145.847 154.594 145.847 153.271C145.847 151.947 144.772 150.875 143.445 150.875C142.118 150.875 141.043 151.947 141.043 153.271C141.043 154.594 142.118 155.667 143.445 155.667Z" fill="#85C441"/>
<path d="M135.255 163.142C136.154 162.169 136.091 160.653 135.114 159.757C134.138 158.861 132.619 158.924 131.72 159.897C130.822 160.871 130.885 162.387 131.861 163.283C132.838 164.179 134.357 164.116 135.255 163.142Z" fill="#85C441"/>
<path d="M123.88 154.115C124.779 153.141 124.716 151.625 123.739 150.729C122.763 149.833 121.244 149.896 120.345 150.87C119.447 151.844 119.51 153.36 120.486 154.256C121.463 155.152 122.982 155.089 123.88 154.115Z" fill="#85C441"/>
<path d="M126.086 145.705C126.7 145.705 127.198 145.208 127.198 144.596C127.198 143.983 126.7 143.487 126.086 143.487C125.472 143.487 124.975 143.983 124.975 144.596C124.975 145.208 125.472 145.705 126.086 145.705Z" fill="#85C441"/>
<path d="M150.178 116.858C150.747 116.629 151.022 115.983 150.792 115.415C150.563 114.847 149.915 114.572 149.345 114.801C148.776 115.03 148.501 115.677 148.731 116.245C148.96 116.813 149.608 117.087 150.178 116.858Z" fill="#44C7F0"/>
<path d="M140.922 116.168C141.324 116.006 141.519 115.549 141.357 115.147C141.194 114.745 140.736 114.551 140.333 114.713C139.93 114.875 139.735 115.333 139.898 115.734C140.06 116.136 140.519 116.33 140.922 116.168Z" fill="#44C7F0"/>
<path d="M125.31 143.096C125.88 142.867 126.155 142.221 125.925 141.653C125.695 141.085 125.048 140.81 124.478 141.04C123.909 141.269 123.634 141.915 123.863 142.483C124.093 143.051 124.741 143.326 125.31 143.096Z" fill="#44C7F0"/>
<path d="M144.418 143.27C144.987 143.041 145.262 142.395 145.033 141.827C144.803 141.259 144.155 140.984 143.586 141.213C143.016 141.443 142.741 142.089 142.971 142.657C143.201 143.225 143.848 143.499 144.418 143.27Z" fill="#44C7F0"/>
<path d="M161.631 123.179C162.2 122.95 162.475 122.303 162.246 121.735C162.016 121.167 161.368 120.893 160.799 121.122C160.229 121.351 159.954 121.998 160.184 122.565C160.413 123.133 161.061 123.408 161.631 123.179Z" fill="#44C7F0"/>
<path d="M152.611 123.203C153.181 122.973 153.456 122.327 153.226 121.759C152.996 121.191 152.348 120.917 151.779 121.146C151.21 121.375 150.934 122.021 151.164 122.589C151.394 123.157 152.042 123.432 152.611 123.203Z" fill="#44C7F0"/>
<path d="M143.355 122.513C143.758 122.351 143.953 121.894 143.79 121.492C143.628 121.09 143.169 120.896 142.766 121.058C142.364 121.22 142.169 121.677 142.331 122.079C142.494 122.481 142.952 122.675 143.355 122.513Z" fill="#44C7F0"/>
<path d="M164.062 129.524C164.632 129.294 164.907 128.648 164.677 128.08C164.447 127.512 163.8 127.238 163.23 127.467C162.661 127.696 162.386 128.342 162.615 128.91C162.845 129.478 163.493 129.753 164.062 129.524Z" fill="#44C7F0"/>
<path d="M139.117 123.831C139.686 123.602 139.962 122.956 139.732 122.388C139.502 121.82 138.854 121.545 138.285 121.774C137.715 122.004 137.44 122.65 137.67 123.218C137.9 123.786 138.548 124.06 139.117 123.831Z" fill="#44C7F0"/>
<path d="M129.861 123.141C130.264 122.979 130.459 122.522 130.296 122.12C130.133 121.718 129.675 121.524 129.272 121.686C128.87 121.849 128.675 122.306 128.837 122.708C129 123.109 129.458 123.304 129.861 123.141Z" fill="#44C7F0"/>
<path d="M150.57 130.154C151.14 129.925 151.415 129.278 151.185 128.71C150.955 128.142 150.307 127.868 149.738 128.097C149.169 128.326 148.893 128.973 149.123 129.541C149.353 130.109 150.001 130.383 150.57 130.154Z" fill="#44C7F0"/>
<path d="M145.98 134.394C146.55 134.165 146.825 133.519 146.595 132.951C146.365 132.383 145.718 132.108 145.148 132.337C144.579 132.567 144.303 133.213 144.533 133.781C144.763 134.349 145.411 134.623 145.98 134.394Z" fill="#44C7F0"/>
<path d="M136.724 133.704C137.127 133.542 137.322 133.085 137.159 132.683C136.997 132.281 136.538 132.087 136.136 132.249C135.733 132.411 135.538 132.869 135.701 133.271C135.863 133.672 136.322 133.867 136.724 133.704Z" fill="#44C7F0"/>
<path d="M138.565 140.347C139.795 139.852 140.39 138.456 139.893 137.229C139.396 136.001 137.997 135.408 136.767 135.903C135.536 136.399 134.942 137.795 135.438 139.022C135.935 140.249 137.334 140.843 138.565 140.347Z" fill="#44C7F0"/>
<path d="M146.055 127.59C146.523 126.352 145.896 124.97 144.654 124.504C143.413 124.037 142.027 124.663 141.56 125.901C141.092 127.14 141.719 128.522 142.961 128.988C144.202 129.455 145.588 128.829 146.055 127.59Z" fill="#44C7F0"/>
<path d="M159.991 131.716C160.459 130.478 159.831 129.096 158.59 128.629C157.348 128.163 155.963 128.789 155.495 130.027C155.028 131.266 155.655 132.648 156.896 133.114C158.138 133.581 159.523 132.955 159.991 131.716Z" fill="#44C7F0"/>
<path d="M157.433 140.714C158.003 140.485 158.278 139.839 158.048 139.271C157.818 138.703 157.171 138.428 156.601 138.658C156.032 138.887 155.757 139.533 155.986 140.101C156.216 140.669 156.864 140.944 157.433 140.714Z" fill="#44C7F0"/>
<path d="M149.756 85.1481C150.325 84.9188 150.6 84.2725 150.371 83.7046C150.141 83.1366 149.493 82.862 148.924 83.0913C148.354 83.3205 148.079 83.9668 148.309 84.5347C148.538 85.1027 149.186 85.3773 149.756 85.1481Z" fill="#44C7F0"/>
<path d="M140.5 84.4583C140.903 84.2961 141.097 83.8389 140.935 83.4371C140.772 83.0353 140.314 82.841 139.911 83.0032C139.508 83.1654 139.313 83.6226 139.476 84.0244C139.639 84.4262 140.097 84.6205 140.5 84.4583Z" fill="#44C7F0"/>
<path d="M124.889 111.388C125.458 111.159 125.733 110.513 125.503 109.945C125.274 109.377 124.626 109.102 124.056 109.332C123.487 109.561 123.212 110.207 123.441 110.775C123.671 111.343 124.319 111.618 124.889 111.388Z" fill="#44C7F0"/>
<path d="M143.996 111.56C144.565 111.33 144.841 110.684 144.611 110.116C144.381 109.548 143.733 109.274 143.164 109.503C142.594 109.732 142.319 110.378 142.549 110.946C142.779 111.514 143.427 111.789 143.996 111.56Z" fill="#44C7F0"/>
<path d="M161.211 91.4684C161.78 91.2391 162.055 90.5929 161.826 90.0249C161.596 89.4569 160.948 89.1823 160.379 89.4116C159.809 89.6408 159.534 90.2871 159.764 90.8551C159.994 91.423 160.641 91.6976 161.211 91.4684Z" fill="#44C7F0"/>
<path d="M152.189 91.4923C152.759 91.2631 153.034 90.6168 152.804 90.0488C152.574 89.4809 151.926 89.2063 151.357 89.4355C150.788 89.6647 150.512 90.311 150.742 90.879C150.972 91.4469 151.62 91.7215 152.189 91.4923Z" fill="#44C7F0"/>
<path d="M142.933 90.8025C143.336 90.6404 143.531 90.1832 143.368 89.7813C143.206 89.3795 142.747 89.1853 142.345 89.3475C141.942 89.5096 141.747 89.9668 141.91 90.3687C142.072 90.7705 142.531 90.9647 142.933 90.8025Z" fill="#44C7F0"/>
<path d="M163.642 97.8126C164.212 97.5834 164.487 96.9371 164.257 96.3691C164.027 95.8012 163.38 95.5266 162.81 95.7558C162.241 95.9851 161.966 96.6313 162.195 97.1993C162.425 97.7673 163.073 98.0418 163.642 97.8126Z" fill="#44C7F0"/>
<path d="M138.695 92.1207C139.265 91.8915 139.54 91.2452 139.31 90.6772C139.08 90.1093 138.432 89.8347 137.863 90.0639C137.294 90.2932 137.018 90.9394 137.248 91.5074C137.478 92.0754 138.126 92.35 138.695 92.1207Z" fill="#44C7F0"/>
<path d="M129.437 91.431C129.84 91.2688 130.035 90.8116 129.872 90.4098C129.71 90.008 129.251 89.8137 128.848 89.9759C128.446 90.1381 128.251 90.5953 128.414 90.9971C128.576 91.3989 129.034 91.5932 129.437 91.431Z" fill="#44C7F0"/>
<path d="M150.146 98.444C150.716 98.2147 150.991 97.5684 150.761 97.0005C150.531 96.4325 149.884 96.1579 149.314 96.3872C148.745 96.6164 148.47 97.2627 148.699 97.8306C148.929 98.3986 149.577 98.6732 150.146 98.444Z" fill="#44C7F0"/>
<path d="M145.56 102.684C146.13 102.454 146.405 101.808 146.175 101.24C145.945 100.672 145.298 100.398 144.728 100.627C144.159 100.856 143.884 101.502 144.113 102.07C144.343 102.638 144.991 102.913 145.56 102.684Z" fill="#44C7F0"/>
<path d="M136.302 101.994C136.705 101.832 136.9 101.375 136.737 100.973C136.575 100.571 136.117 100.377 135.714 100.539C135.311 100.701 135.116 101.158 135.279 101.56C135.441 101.962 135.9 102.156 136.302 101.994Z" fill="#44C7F0"/>
<path d="M138.141 108.635C139.371 108.14 139.966 106.743 139.469 105.516C138.973 104.289 137.573 103.696 136.343 104.191C135.113 104.686 134.518 106.083 135.014 107.31C135.511 108.537 136.911 109.13 138.141 108.635Z" fill="#44C7F0"/>
<path d="M145.632 95.879C146.099 94.6406 145.472 93.2586 144.23 92.7921C142.989 92.3256 141.603 92.9514 141.136 94.1898C140.668 95.4282 141.295 96.8103 142.537 97.2767C143.778 97.7432 145.164 97.1174 145.632 95.879Z" fill="#44C7F0"/>
<path d="M157.594 97.9362C158.062 96.6978 157.435 95.3157 156.193 94.8492C154.952 94.3828 153.566 95.0085 153.099 96.2469C152.631 97.4853 153.258 98.8674 154.5 99.3339C155.741 99.8004 157.127 99.1746 157.594 97.9362Z" fill="#44C7F0"/>
<path d="M157.01 109.005C157.579 108.776 157.854 108.129 157.624 107.562C157.395 106.994 156.747 106.719 156.177 106.948C155.608 107.177 155.333 107.824 155.563 108.392C155.792 108.96 156.44 109.234 157.01 109.005Z" fill="#44C7F0"/>
<path d="M140.63 52.3016C140.735 51.6952 140.327 51.1193 139.719 51.0152C139.111 50.911 138.534 51.3182 138.429 51.9245C138.325 52.5309 138.733 53.1069 139.341 53.211C139.949 53.3151 140.526 52.908 140.63 52.3016Z" fill="#EE3C89"/>
<path d="M110.083 36.883C110.26 35.8427 109.558 34.8563 108.515 34.6798C107.473 34.5033 106.484 35.2035 106.307 36.2438C106.13 37.2841 106.832 38.2705 107.875 38.447C108.917 38.6236 109.906 37.9233 110.083 36.883Z" fill="#EE3C89"/>
<path d="M130.154 52.9246C130.557 52.7624 130.752 52.3052 130.589 51.9034C130.426 51.5016 129.968 51.3074 129.565 51.4695C129.162 51.6317 128.968 52.0889 129.13 52.4907C129.293 52.8925 129.751 53.0868 130.154 52.9246Z" fill="#EE3C89"/>
<path d="M114.541 79.8526C115.11 79.6234 115.386 78.9771 115.156 78.4092C114.926 77.8412 114.278 77.5666 113.709 77.7959C113.139 78.0251 112.864 78.6714 113.094 79.2393C113.324 79.8073 113.972 80.0819 114.541 79.8526Z" fill="#EE3C89"/>
<path d="M133.65 80.026C134.22 79.7967 134.495 79.1505 134.265 78.5825C134.035 78.0145 133.387 77.74 132.818 77.9692C132.249 78.1984 131.973 78.8447 132.203 79.4127C132.433 79.9806 133.081 80.2552 133.65 80.026Z" fill="#EE3C89"/>
<path d="M141.844 59.9567C142.413 59.7274 142.688 59.0811 142.458 58.5132C142.229 57.9452 141.581 57.6706 141.011 57.8999C140.442 58.1291 140.167 58.7754 140.397 59.3433C140.626 59.9113 141.274 60.1859 141.844 59.9567Z" fill="#EE3C89"/>
<path d="M132.775 59.1474C133.118 58.881 133.179 58.388 132.912 58.0463C132.644 57.7046 132.15 57.6436 131.808 57.9101C131.465 58.1766 131.404 58.6696 131.671 59.0113C131.938 59.3529 132.433 59.4139 132.775 59.1474Z" fill="#EE3C89"/>
<path d="M116.507 67.1401C116.85 66.8736 116.911 66.3806 116.644 66.039C116.377 65.6973 115.883 65.6363 115.54 65.9028C115.198 66.1692 115.136 66.6622 115.404 67.0039C115.671 67.3456 116.165 67.4066 116.507 67.1401Z" fill="#EE3C89"/>
<path d="M108.759 62.5415C109.102 62.275 109.163 61.782 108.896 61.4403C108.629 61.0986 108.135 61.0377 107.792 61.3041C107.45 61.5706 107.388 62.0636 107.656 62.4053C107.923 62.747 108.417 62.8079 108.759 62.5415Z" fill="#EE3C89"/>
<path d="M110.14 55.355C110.483 55.0885 110.544 54.5955 110.277 54.2538C110.01 53.9121 109.515 53.8511 109.173 54.1176C108.83 54.3841 108.769 54.8771 109.036 55.2188C109.304 55.5605 109.798 55.6214 110.14 55.355Z" fill="#EE3C89"/>
<path d="M128.348 60.5851C128.917 60.3558 129.192 59.7096 128.962 59.1416C128.733 58.5736 128.085 58.299 127.515 58.5283C126.946 58.7575 126.671 59.4038 126.9 59.9718C127.13 60.5397 127.778 60.8143 128.348 60.5851Z" fill="#EE3C89"/>
<path d="M139.799 66.9064C140.368 66.6771 140.643 66.0308 140.414 65.4629C140.184 64.8949 139.536 64.6203 138.966 64.8496C138.397 65.0788 138.122 65.7251 138.352 66.293C138.581 66.861 139.229 67.1356 139.799 66.9064Z" fill="#EE3C89"/>
<path d="M131.537 43.1836C132.066 42.8739 132.244 42.1944 131.934 41.6661C131.623 41.1377 130.942 40.9604 130.412 41.2702C129.883 41.58 129.705 42.2594 130.015 42.7878C130.326 43.3162 131.007 43.4934 131.537 43.1836Z" fill="#EE3C89"/>
<path d="M116.857 46.2916C117.387 45.9818 117.564 45.3024 117.254 44.774C116.943 44.2456 116.262 44.0684 115.733 44.3781C115.203 44.6879 115.025 45.3673 115.336 45.8957C115.646 46.4241 116.327 46.6013 116.857 46.2916Z" fill="#EE3C89"/>
<path d="M120.115 40.2476C120.645 39.9379 120.822 39.2584 120.512 38.73C120.201 38.2016 119.52 38.0244 118.99 38.3342C118.461 38.6439 118.283 39.3234 118.593 39.8517C118.904 40.3801 119.585 40.5574 120.115 40.2476Z" fill="#EE3C89"/>
<path d="M135.213 71.1461C135.782 70.9169 136.057 70.2706 135.828 69.7026C135.598 69.1347 134.95 68.8601 134.381 69.0893C133.811 69.3186 133.536 69.9648 133.766 70.5328C133.996 71.1008 134.643 71.3753 135.213 71.1461Z" fill="#EE3C89"/>
<path d="M125.957 70.4583C126.36 70.2961 126.554 69.8389 126.392 69.4371C126.229 69.0353 125.771 68.841 125.368 69.0032C124.965 69.1654 124.77 69.6226 124.933 70.0244C125.096 70.4262 125.554 70.6205 125.957 70.4583Z" fill="#EE3C89"/>
<path d="M127.795 77.1013C129.025 76.606 129.62 75.2097 129.123 73.9825C128.627 72.7553 127.227 72.1621 125.997 72.6574C124.767 73.1527 124.172 74.549 124.669 75.7762C125.165 77.0033 126.565 77.5966 127.795 77.1013Z" fill="#EE3C89"/>
<path d="M135.286 64.3429C135.753 63.1045 135.126 61.7224 133.885 61.256C132.643 60.7895 131.258 61.4153 130.79 62.6537C130.322 63.8921 130.95 65.2741 132.191 65.7406C133.433 66.2071 134.818 65.5813 135.286 64.3429Z" fill="#EE3C89"/>
<path d="M149.219 68.4679C149.687 67.2295 149.06 65.8474 147.818 65.381C146.577 64.9145 145.191 65.5403 144.724 66.7787C144.256 68.0171 144.883 69.3991 146.125 69.8656C147.366 70.3321 148.752 69.7063 149.219 68.4679Z" fill="#EE3C89"/>
<path d="M146.662 77.4693C147.231 77.2401 147.507 76.5938 147.277 76.0259C147.047 75.4579 146.399 75.1833 145.83 75.4126C145.26 75.6418 144.985 76.2881 145.215 76.856C145.445 77.424 146.093 77.6986 146.662 77.4693Z" fill="#EE3C89"/>
<path d="M165.747 223.133C165.948 222.805 165.844 222.377 165.516 222.176C165.187 221.976 164.758 222.079 164.557 222.407C164.356 222.734 164.46 223.163 164.788 223.363C165.117 223.563 165.546 223.46 165.747 223.133Z" fill="#FDD80F"/>
<path d="M160.823 226.234C160.965 226.002 160.892 225.699 160.66 225.558C160.428 225.416 160.124 225.489 159.982 225.721C159.84 225.952 159.913 226.255 160.145 226.397C160.378 226.539 160.681 226.466 160.823 226.234Z" fill="#FDD80F"/>
<path d="M163.044 245.63C163.245 245.302 163.141 244.874 162.813 244.674C162.484 244.473 162.055 244.576 161.854 244.904C161.653 245.231 161.757 245.66 162.085 245.86C162.413 246.061 162.843 245.957 163.044 245.63Z" fill="#FDD80F"/>
<path d="M172.741 238.594C172.942 238.266 172.838 237.838 172.51 237.637C172.182 237.437 171.752 237.54 171.551 237.868C171.35 238.195 171.454 238.623 171.782 238.824C172.111 239.024 172.54 238.921 172.741 238.594Z" fill="#FDD80F"/>
<path d="M173.887 222.048C174.088 221.72 173.985 221.292 173.657 221.091C173.328 220.891 172.899 220.994 172.698 221.322C172.497 221.649 172.6 222.078 172.929 222.278C173.257 222.479 173.686 222.375 173.887 222.048Z" fill="#FDD80F"/>
<path d="M169.35 225.422C169.551 225.095 169.448 224.666 169.119 224.466C168.791 224.266 168.362 224.369 168.161 224.696C167.96 225.024 168.063 225.452 168.392 225.653C168.72 225.853 169.149 225.75 169.35 225.422Z" fill="#FDD80F"/>
<path d="M164.425 228.526C164.567 228.294 164.494 227.991 164.262 227.85C164.029 227.708 163.726 227.781 163.584 228.012C163.441 228.244 163.515 228.547 163.747 228.689C163.979 228.831 164.283 228.758 164.425 228.526Z" fill="#FDD80F"/>
<path d="M177.491 224.339C177.692 224.012 177.588 223.583 177.26 223.383C176.932 223.183 176.502 223.286 176.301 223.613C176.1 223.941 176.204 224.369 176.532 224.57C176.861 224.77 177.29 224.667 177.491 224.339Z" fill="#FDD80F"/>
<path d="M162.784 230.771C162.985 230.444 162.881 230.016 162.553 229.815C162.225 229.615 161.795 229.718 161.594 230.045C161.393 230.373 161.497 230.801 161.825 231.002C162.154 231.202 162.583 231.099 162.784 230.771Z" fill="#FDD80F"/>
<path d="M157.86 233.875C158.003 233.643 157.93 233.341 157.697 233.199C157.465 233.057 157.161 233.13 157.019 233.362C156.877 233.593 156.95 233.896 157.182 234.038C157.415 234.18 157.718 234.107 157.86 233.875Z" fill="#FDD80F"/>
<path d="M170.924 229.687C171.125 229.36 171.022 228.932 170.694 228.731C170.365 228.531 169.936 228.634 169.735 228.961C169.534 229.289 169.637 229.717 169.966 229.918C170.294 230.118 170.723 230.015 170.924 229.687Z" fill="#FDD80F"/>
<path d="M170.202 233.536C170.403 233.208 170.299 232.78 169.971 232.58C169.642 232.379 169.213 232.482 169.012 232.81C168.811 233.138 168.915 233.566 169.243 233.766C169.572 233.967 170.001 233.864 170.202 233.536Z" fill="#FDD80F"/>
<path d="M165.276 236.64C165.419 236.408 165.345 236.106 165.113 235.964C164.881 235.822 164.577 235.895 164.435 236.127C164.293 236.359 164.366 236.661 164.598 236.803C164.831 236.945 165.134 236.872 165.276 236.64Z" fill="#FDD80F"/>
<path d="M167.69 239.374C168.122 238.668 167.9 237.746 167.192 237.314C166.485 236.882 165.56 237.104 165.127 237.81C164.695 238.516 164.917 239.438 165.625 239.87C166.332 240.301 167.257 240.079 167.69 239.374Z" fill="#FDD80F"/>
<path d="M165.436 232.288C166.236 232.064 166.701 231.236 166.476 230.439C166.252 229.642 165.422 229.178 164.623 229.402C163.824 229.626 163.358 230.454 163.583 231.251C163.807 232.048 164.637 232.512 165.436 232.288Z" fill="#FDD80F"/>
<path d="M175.223 228.817C176.024 228.59 176.488 227.758 176.259 226.959C176.031 226.161 175.197 225.698 174.397 225.926C173.596 226.154 173.132 226.986 173.361 227.784C173.589 228.583 174.423 229.045 175.223 228.817Z" fill="#FDD80F"/>
<path d="M178.342 232.453C178.543 232.126 178.44 231.698 178.112 231.497C177.783 231.297 177.354 231.4 177.153 231.728C176.952 232.055 177.055 232.483 177.384 232.684C177.712 232.884 178.141 232.781 178.342 232.453Z" fill="#FDD80F"/>
<path d="M190.56 223.043C190.722 222.778 190.639 222.432 190.373 222.27C190.108 222.108 189.761 222.192 189.599 222.456C189.436 222.721 189.52 223.067 189.785 223.229C190.051 223.391 190.397 223.307 190.56 223.043Z" fill="#FDD80F"/>
<path d="M186.583 225.545C186.697 225.358 186.639 225.114 186.451 225C186.264 224.885 186.019 224.944 185.905 225.131C185.79 225.318 185.849 225.562 186.036 225.676C186.224 225.79 186.468 225.732 186.583 225.545Z" fill="#FDD80F"/>
<path d="M188.376 241.206C188.538 240.942 188.455 240.596 188.19 240.434C187.924 240.272 187.577 240.355 187.415 240.62C187.253 240.885 187.336 241.23 187.602 241.392C187.867 241.554 188.214 241.471 188.376 241.206Z" fill="#FDD80F"/>
<path d="M196.204 235.526C196.367 235.261 196.283 234.915 196.018 234.753C195.752 234.591 195.406 234.674 195.243 234.939C195.081 235.204 195.164 235.55 195.43 235.712C195.695 235.874 196.042 235.79 196.204 235.526Z" fill="#FDD80F"/>
<path d="M197.132 222.168C197.294 221.903 197.211 221.557 196.945 221.395C196.68 221.233 196.333 221.316 196.171 221.581C196.009 221.846 196.092 222.192 196.357 222.354C196.623 222.516 196.97 222.432 197.132 222.168Z" fill="#FDD80F"/>
<path d="M193.47 224.891C193.632 224.627 193.549 224.281 193.283 224.119C193.018 223.957 192.671 224.04 192.509 224.305C192.346 224.57 192.43 224.915 192.695 225.077C192.961 225.239 193.307 225.156 193.47 224.891Z" fill="#FDD80F"/>
<path d="M189.493 227.397C189.608 227.211 189.549 226.967 189.361 226.852C189.174 226.738 188.929 226.797 188.815 226.984C188.7 227.17 188.759 227.414 188.946 227.529C189.134 227.643 189.378 227.584 189.493 227.397Z" fill="#FDD80F"/>
<path d="M200.042 224.015C200.204 223.751 200.121 223.405 199.856 223.243C199.59 223.081 199.243 223.164 199.081 223.429C198.919 223.694 199.002 224.04 199.268 224.201C199.533 224.363 199.88 224.28 200.042 224.015Z" fill="#FDD80F"/>
<path d="M188.169 229.211C188.331 228.946 188.248 228.6 187.983 228.438C187.717 228.276 187.37 228.359 187.208 228.624C187.046 228.889 187.129 229.235 187.395 229.397C187.66 229.559 188.007 229.475 188.169 229.211Z" fill="#FDD80F"/>
<path d="M184.192 231.715C184.307 231.528 184.248 231.284 184.061 231.17C183.873 231.055 183.629 231.114 183.514 231.301C183.4 231.488 183.458 231.732 183.646 231.846C183.833 231.96 184.078 231.902 184.192 231.715Z" fill="#FDD80F"/>
<path d="M194.739 228.335C194.902 228.07 194.818 227.724 194.553 227.562C194.288 227.4 193.941 227.483 193.778 227.748C193.616 228.013 193.7 228.359 193.965 228.521C194.23 228.683 194.577 228.599 194.739 228.335Z" fill="#FDD80F"/>
<path d="M194.155 231.442C194.318 231.177 194.234 230.831 193.969 230.669C193.704 230.507 193.357 230.59 193.194 230.855C193.032 231.12 193.116 231.466 193.381 231.628C193.646 231.79 193.993 231.706 194.155 231.442Z" fill="#FDD80F"/>
<path d="M189.152 234.095C189.266 233.909 189.207 233.666 189.021 233.552C188.834 233.438 188.59 233.497 188.476 233.683C188.362 233.869 188.421 234.112 188.607 234.226C188.794 234.34 189.038 234.282 189.152 234.095Z" fill="#FDD80F"/>
<path d="M192.937 236.097C193.288 235.526 193.108 234.779 192.535 234.43C191.962 234.08 191.214 234.26 190.863 234.831C190.513 235.403 190.693 236.149 191.266 236.499C191.839 236.848 192.587 236.669 192.937 236.097Z" fill="#FDD80F"/>
<path d="M191.293 230.146C191.939 229.962 192.313 229.291 192.129 228.647C191.945 228.002 191.272 227.629 190.626 227.813C189.981 227.997 189.606 228.668 189.791 229.312C189.975 229.956 190.648 230.329 191.293 230.146Z" fill="#FDD80F"/>
<path d="M198.209 227.631C198.855 227.447 199.229 226.776 199.045 226.132C198.861 225.488 198.188 225.114 197.542 225.298C196.897 225.482 196.522 226.153 196.707 226.797C196.891 227.441 197.564 227.815 198.209 227.631Z" fill="#FDD80F"/>
<path d="M200.73 230.567C200.892 230.302 200.808 229.957 200.543 229.795C200.278 229.633 199.931 229.716 199.769 229.981C199.606 230.245 199.69 230.591 199.955 230.753C200.221 230.915 200.567 230.832 200.73 230.567Z" fill="#FDD80F"/>
<path d="M207.917 216.548C208.079 216.283 207.996 215.938 207.731 215.776C207.465 215.614 207.118 215.697 206.956 215.962C206.794 216.226 206.877 216.572 207.143 216.734C207.408 216.896 207.755 216.813 207.917 216.548Z" fill="#FDD80F"/>
<path d="M203.809 219.593C203.924 219.406 203.865 219.162 203.678 219.048C203.491 218.933 203.246 218.992 203.131 219.179C203.017 219.366 203.076 219.61 203.263 219.724C203.45 219.838 203.695 219.78 203.809 219.593Z" fill="#FDD80F"/>
<path d="M205.461 232.198C205.578 231.911 205.44 231.583 205.152 231.466C204.864 231.349 204.535 231.487 204.418 231.774C204.3 232.061 204.439 232.389 204.727 232.506C205.015 232.623 205.344 232.485 205.461 232.198Z" fill="#FDD80F"/>
<path d="M214.126 224.578C214.288 224.313 214.205 223.967 213.94 223.805C213.674 223.643 213.327 223.727 213.165 223.991C213.003 224.256 213.086 224.602 213.352 224.764C213.617 224.926 213.964 224.843 214.126 224.578Z" fill="#FDD80F"/>
<path d="M213.473 214.807C213.635 214.544 213.552 214.199 213.287 214.038C213.023 213.876 212.677 213.959 212.516 214.223C212.354 214.487 212.437 214.832 212.701 214.993C212.966 215.154 213.311 215.071 213.473 214.807Z" fill="#FDD80F"/>
<path d="M210.825 217.275C210.988 217.01 210.904 216.664 210.639 216.502C210.373 216.34 210.027 216.423 209.864 216.688C209.702 216.953 209.785 217.299 210.051 217.461C210.316 217.623 210.663 217.539 210.825 217.275Z" fill="#FDD80F"/>
<path d="M206.852 219.779C206.967 219.592 206.908 219.348 206.721 219.234C206.534 219.12 206.289 219.179 206.174 219.365C206.06 219.552 206.119 219.796 206.306 219.911C206.493 220.025 206.738 219.966 206.852 219.779Z" fill="#FDD80F"/>
<path d="M217.4 216.399C217.562 216.134 217.478 215.788 217.213 215.626C216.948 215.464 216.601 215.547 216.439 215.812C216.276 216.077 216.36 216.423 216.625 216.585C216.89 216.747 217.237 216.663 217.4 216.399Z" fill="#FDD80F"/>
<path d="M205.525 221.59C205.687 221.325 205.603 220.98 205.338 220.818C205.073 220.656 204.726 220.739 204.564 221.004C204.401 221.268 204.485 221.614 204.75 221.776C205.015 221.938 205.362 221.855 205.525 221.59Z" fill="#FDD80F"/>
<path d="M201.548 224.096C201.662 223.909 201.603 223.665 201.416 223.551C201.229 223.437 200.984 223.495 200.87 223.682C200.755 223.869 200.814 224.113 201.001 224.227C201.188 224.342 201.433 224.283 201.548 224.096Z" fill="#FDD80F"/>
<path d="M212.101 220.716C212.263 220.451 212.18 220.105 211.914 219.943C211.649 219.781 211.302 219.864 211.14 220.129C210.977 220.394 211.061 220.74 211.326 220.902C211.592 221.064 211.938 220.98 212.101 220.716Z" fill="#FDD80F"/>
<path d="M211.515 223.822C211.677 223.557 211.594 223.211 211.328 223.049C211.063 222.887 210.716 222.971 210.554 223.236C210.391 223.5 210.475 223.846 210.74 224.008C211.006 224.17 211.352 224.087 211.515 223.822Z" fill="#FDD80F"/>
<path d="M207.538 226.329C207.653 226.142 207.594 225.898 207.406 225.783C207.219 225.669 206.974 225.728 206.86 225.915C206.745 226.101 206.804 226.346 206.991 226.46C207.179 226.574 207.423 226.515 207.538 226.329Z" fill="#FDD80F"/>
<path d="M210.295 228.478C210.645 227.907 210.465 227.16 209.892 226.81C209.319 226.461 208.571 226.641 208.221 227.212C207.87 227.783 208.05 228.53 208.623 228.88C209.196 229.229 209.944 229.049 210.295 228.478Z" fill="#FDD80F"/>
<path d="M208.649 222.527C209.295 222.344 209.669 221.673 209.485 221.028C209.3 220.384 208.628 220.011 207.982 220.195C207.336 220.378 206.962 221.05 207.146 221.694C207.33 222.338 208.003 222.711 208.649 222.527Z" fill="#FDD80F"/>
<path d="M215.567 220.012C216.213 219.828 216.587 219.157 216.403 218.513C216.218 217.869 215.546 217.495 214.9 217.679C214.254 217.863 213.88 218.534 214.064 219.178C214.248 219.822 214.921 220.196 215.567 220.012Z" fill="#FDD80F"/>
<path d="M224.844 202.707C224.9 202.49 224.768 202.27 224.551 202.215C224.334 202.159 224.113 202.29 224.057 202.507C224.002 202.724 224.133 202.944 224.35 203C224.568 203.055 224.789 202.924 224.844 202.707Z" fill="#FDD80F"/>
<path d="M224.731 197.686C224.77 197.533 224.677 197.377 224.523 197.338C224.37 197.299 224.214 197.392 224.174 197.545C224.135 197.698 224.228 197.854 224.382 197.893C224.535 197.932 224.691 197.84 224.731 197.686Z" fill="#FDD80F"/>
<path d="M227.172 189.061C227.211 188.908 227.118 188.752 226.965 188.713C226.811 188.674 226.655 188.767 226.616 188.92C226.577 189.073 226.669 189.229 226.823 189.268C226.977 189.307 227.133 189.215 227.172 189.061Z" fill="#FDD80F"/>
<path d="M226.381 187.869C226.42 187.716 226.327 187.56 226.174 187.521C226.02 187.482 225.864 187.574 225.825 187.728C225.786 187.881 225.878 188.037 226.032 188.076C226.186 188.115 226.342 188.022 226.381 187.869Z" fill="#FDD80F"/>
<path d="M226.598 185.691C226.637 185.538 226.544 185.382 226.391 185.343C226.237 185.304 226.081 185.397 226.042 185.55C226.002 185.703 226.095 185.859 226.249 185.898C226.402 185.937 226.559 185.844 226.598 185.691Z" fill="#FDD80F"/>
<path d="M222.305 201.054C222.325 200.831 222.16 200.635 221.936 200.615C221.713 200.596 221.516 200.76 221.496 200.983C221.477 201.206 221.642 201.403 221.865 201.422C222.089 201.442 222.286 201.277 222.305 201.054Z" fill="#FDD80F"/>
<path d="M227.038 199.007C227.058 198.784 226.893 198.586 226.669 198.566C226.444 198.546 226.246 198.711 226.226 198.934C226.206 199.158 226.371 199.356 226.595 199.376C226.82 199.396 227.018 199.231 227.038 199.007Z" fill="#FDD80F"/>
<path d="M225.249 193.467C225.268 193.244 225.103 193.047 224.88 193.028C224.656 193.008 224.459 193.173 224.44 193.396C224.42 193.619 224.585 193.815 224.809 193.835C225.032 193.854 225.229 193.689 225.249 193.467Z" fill="#FDD80F"/>
<path d="M227.886 191.22C227.906 190.996 227.74 190.798 227.516 190.778C227.292 190.758 227.094 190.923 227.074 191.147C227.053 191.37 227.219 191.568 227.443 191.588C227.667 191.608 227.865 191.443 227.886 191.22Z" fill="#FDD80F"/>
<path d="M226.067 190.015C226.087 189.793 225.921 189.596 225.698 189.577C225.475 189.557 225.278 189.722 225.258 189.945C225.239 190.168 225.404 190.364 225.627 190.384C225.851 190.403 226.047 190.238 226.067 190.015Z" fill="#FDD80F"/>
<path d="M217.877 207.554C217.933 207.337 217.802 207.117 217.584 207.061C217.367 207.006 217.146 207.137 217.091 207.354C217.035 207.57 217.166 207.791 217.384 207.846C217.601 207.901 217.822 207.771 217.877 207.554Z" fill="#FDD80F"/>
<path d="M219.457 213.747C219.513 213.53 219.382 213.309 219.164 213.254C218.947 213.199 218.726 213.33 218.671 213.547C218.615 213.763 218.746 213.984 218.964 214.039C219.181 214.094 219.402 213.963 219.457 213.747Z" fill="#FDD80F"/>
<path d="M221.397 211.1C221.452 210.883 221.321 210.663 221.104 210.607C220.887 210.552 220.666 210.683 220.61 210.9C220.555 211.116 220.686 211.337 220.903 211.392C221.12 211.447 221.342 211.317 221.397 211.1Z" fill="#FDD80F"/>
<path d="M223.363 208.481C223.403 208.328 223.31 208.172 223.156 208.133C223.003 208.094 222.846 208.186 222.807 208.339C222.768 208.493 222.861 208.648 223.014 208.687C223.168 208.727 223.324 208.634 223.363 208.481Z" fill="#FDD80F"/>
<path d="M217.067 213.093C217.122 212.876 216.991 212.656 216.774 212.6C216.557 212.545 216.335 212.676 216.28 212.893C216.225 213.109 216.356 213.33 216.573 213.385C216.79 213.441 217.011 213.31 217.067 213.093Z" fill="#FDD80F"/>
<path d="M224.12 207.015C224.175 206.798 224.044 206.578 223.827 206.522C223.609 206.467 223.388 206.598 223.333 206.815C223.277 207.031 223.409 207.252 223.626 207.307C223.843 207.362 224.064 207.232 224.12 207.015Z" fill="#FDD80F"/>
<path d="M224.127 200.411C224.166 200.258 224.074 200.102 223.92 200.063C223.766 200.024 223.61 200.117 223.571 200.27C223.532 200.423 223.625 200.579 223.778 200.618C223.932 200.657 224.088 200.565 224.127 200.411Z" fill="#FDD80F"/>
<path d="M219.791 209.004C219.847 208.787 219.716 208.566 219.498 208.511C219.281 208.456 219.06 208.587 219.005 208.803C218.949 209.02 219.08 209.241 219.298 209.296C219.515 209.351 219.736 209.22 219.791 209.004Z" fill="#FDD80F"/>
<path d="M219.532 206.747C219.587 206.53 219.456 206.31 219.239 206.255C219.021 206.199 218.8 206.33 218.745 206.547C218.689 206.764 218.821 206.984 219.038 207.04C219.255 207.095 219.476 206.964 219.532 206.747Z" fill="#FDD80F"/>
<path d="M223.363 202.963C223.403 202.81 223.31 202.654 223.156 202.615C223.003 202.576 222.846 202.668 222.807 202.821C222.768 202.974 222.861 203.13 223.014 203.169C223.168 203.208 223.324 203.116 223.363 202.963Z" fill="#FDD80F"/>
<path d="M221.849 204.396C221.968 203.93 221.685 203.455 221.218 203.336C220.75 203.217 220.275 203.499 220.155 203.965C220.036 204.431 220.318 204.906 220.786 205.025C221.254 205.144 221.729 204.862 221.849 204.396Z" fill="#FDD80F"/>
<path d="M226.579 195.608C226.698 195.142 226.416 194.667 225.948 194.548C225.481 194.429 225.005 194.711 224.886 195.178C224.767 195.644 225.049 196.118 225.516 196.237C225.984 196.356 226.46 196.075 226.579 195.608Z" fill="#FDD80F"/>
<path d="M221.941 208.281C222.346 208.018 222.46 207.478 222.197 207.075C221.934 206.672 221.392 206.558 220.988 206.82C220.584 207.083 220.469 207.623 220.733 208.026C220.996 208.43 221.537 208.544 221.941 208.281Z" fill="#FDD80F"/>
<path d="M217.725 211.47C218.129 211.207 218.243 210.667 217.98 210.264C217.717 209.861 217.176 209.747 216.771 210.009C216.367 210.272 216.253 210.812 216.516 211.215C216.779 211.619 217.32 211.733 217.725 211.47Z" fill="#FDD80F"/>
<defs>
<linearGradient id="paint0_linear_1553_14277" x1="6.81504" y1="-13.9866" x2="246.812" y2="242.758" gradientUnits="userSpaceOnUse">
<stop stop-color="#A7C955"/>
<stop offset="0.37" stop-color="#5BB96E"/>
<stop offset="0.41" stop-color="#53AE68"/>
<stop offset="0.73" stop-color="#147547"/>
<stop offset="1" stop-color="#074A2B"/>
</linearGradient>
<radialGradient id="paint1_radial_1553_14277" cx="0" cy="0" r="1" gradientUnits="userSpaceOnUse" gradientTransform="translate(193.468 123.531) scale(126.795 126.481)">
<stop offset="0.05" stop-color="#EFE00F"/>
<stop offset="0.53" stop-color="#FFF9AE"/>
<stop offset="1" stop-color="#EBAC21"/>
</radialGradient>
</defs>
</svg>
