<svg width="25" height="25" viewBox="0 0 25 25" fill="none" xmlns="http://www.w3.org/2000/svg">
<g clip-path="url(#clip0_1503_3188)">
<path d="M12.5 2.08334C8.46876 2.08334 5.20834 5.34376 5.20834 9.37501C5.20834 14.8438 12.5 22.9167 12.5 22.9167C12.5 22.9167 19.7917 14.8438 19.7917 9.37501C19.7917 5.34376 16.5313 2.08334 12.5 2.08334ZM7.29168 9.37501C7.29168 6.50001 9.62501 4.16668 12.5 4.16668C15.375 4.16668 17.7083 6.50001 17.7083 9.37501C17.7083 12.375 14.7083 16.8646 12.5 19.6667C10.3333 16.8854 7.29168 12.3438 7.29168 9.37501Z" fill="black"/>
<path d="M12.5 11.9792C13.9383 11.9792 15.1042 10.8133 15.1042 9.37501C15.1042 7.93677 13.9383 6.77084 12.5 6.77084C11.0618 6.77084 9.89584 7.93677 9.89584 9.37501C9.89584 10.8133 11.0618 11.9792 12.5 11.9792Z" fill="black"/>
</g>
<defs>
<clipPath id="clip0_1503_3188">
<rect width="25" height="25" fill="white"/>
</clipPath>
</defs>
</svg>
