<svg width="25" height="25" viewBox="0 0 25 25" fill="none" xmlns="http://www.w3.org/2000/svg">
<g clip-path="url(#clip0_1503_3195)">
<path d="M15.625 12.5H17.7083C17.7083 9.625 15.375 7.29167 12.5 7.29167V9.375C14.2292 9.375 15.625 10.7708 15.625 12.5ZM19.7917 12.5H21.875C21.875 7.32292 17.6771 3.125 12.5 3.125V5.20833C16.5312 5.20833 19.7917 8.46875 19.7917 12.5ZM20.8333 16.1458C19.5312 16.1458 18.2812 15.9375 17.1146 15.5521C17.0104 15.5208 16.8958 15.5 16.7917 15.5C16.5208 15.5 16.2604 15.6042 16.0521 15.8021L13.7604 18.0938C10.8125 16.5938 8.39583 14.1875 6.89583 11.2292L9.1875 8.92708C9.47917 8.65625 9.5625 8.25 9.44792 7.88542C9.0625 6.71875 8.85417 5.46875 8.85417 4.16667C8.85417 3.59375 8.38542 3.125 7.8125 3.125H4.16667C3.59375 3.125 3.125 3.59375 3.125 4.16667C3.125 13.9479 11.0521 21.875 20.8333 21.875C21.4062 21.875 21.875 21.4062 21.875 20.8333V17.1875C21.875 16.6146 21.4062 16.1458 20.8333 16.1458ZM5.23958 5.20833H6.80208C6.875 6.125 7.03125 7.03125 7.27083 7.89583L6.02083 9.15625C5.60417 7.89583 5.33333 6.58333 5.23958 5.20833ZM19.7917 19.7604C18.4167 19.6667 17.0833 19.3958 15.8333 18.9687L17.0833 17.7188C17.9687 17.9688 18.875 18.125 19.7917 18.1875V19.7604Z" fill="black"/>
</g>
<defs>
<clipPath id="clip0_1503_3195">
<rect width="25" height="25" fill="white"/>
</clipPath>
</defs>
</svg>
